<svg width="16" height="11" viewBox="0 0 16 11" fill="none" xmlns="http://www.w3.org/2000/svg">
<path d="M5.44824 8.42669C6.7289 7.34442 8.60508 7.34442 9.88574 8.42669C9.95009 8.4849 9.98749 8.56751 9.98926 8.65423C9.99092 8.74086 9.95644 8.82399 9.89453 8.8847L7.88965 10.9072C7.83087 10.9666 7.7506 10.9999 7.66699 10.9999C7.5834 10.9999 7.5031 10.9666 7.44434 10.9072L5.43848 8.8847C5.37688 8.824 5.34303 8.74066 5.34473 8.65423C5.34656 8.56755 5.3839 8.48485 5.44824 8.42669ZM2.77246 5.72942C5.53159 3.16504 9.80431 3.1651 12.5635 5.72942C12.6258 5.78956 12.6612 5.87238 12.6621 5.95892C12.6629 6.04526 12.6293 6.12811 12.5684 6.18938L11.4092 7.36028C11.2897 7.47959 11.0971 7.48144 10.9746 7.36517C10.0685 6.5454 8.88933 6.09165 7.66699 6.09173C6.4456 6.09225 5.26772 6.5461 4.3623 7.36517C4.23975 7.48151 4.04622 7.47979 3.92676 7.36028L2.76855 6.18938C2.70747 6.12818 2.67312 6.04533 2.67383 5.95892C2.67465 5.87244 2.71026 5.78954 2.77246 5.72942ZM0.0966797 3.03899C4.32849 -1.01307 11.0044 -1.01292 15.2363 3.03899C15.2976 3.09919 15.3325 3.18166 15.333 3.26751C15.3334 3.35327 15.2997 3.43615 15.2393 3.497L14.0791 4.66692C13.9595 4.78702 13.765 4.7881 13.6436 4.66985C12.0312 3.13845 9.89158 2.28421 7.66699 2.28411C5.4421 2.28413 3.30199 3.13822 1.68945 4.66985C1.56817 4.78822 1.3744 4.78703 1.25488 4.66692L0.09375 3.497C0.0333193 3.43612 -0.000480885 3.35325 0 3.26751C0.000565275 3.18166 0.0353775 3.09915 0.0966797 3.03899Z" fill="white"/>
</svg>
