<svg width="24" height="24" viewBox="0 0 24 24" fill="none" xmlns="http://www.w3.org/2000/svg">
<path d="M5.77778 16.3953H18.2222V10.5608C18.2222 7.30995 15.4364 4.67442 12 4.67442C8.56356 4.67442 5.77778 7.30995 5.77778 10.5608V16.3953ZM12 3C16.4178 3 20 6.38484 20 10.5608V18.0698H4V10.5608C4 6.38484 7.58222 3 12 3ZM9.77778 18.907H14.2222C14.2222 19.4621 13.9881 19.9944 13.5713 20.387C13.1546 20.7795 12.5894 21 12 21C11.4106 21 10.8454 20.7795 10.4287 20.387C10.0119 19.9944 9.77778 19.4621 9.77778 18.907V18.907Z" fill="#4E4B66"/>
</svg>
