<svg width="217" height="66" viewBox="0 0 217 66" fill="none" xmlns="http://www.w3.org/2000/svg">
<path d="M0 63.8V19.7055H8.8561V39.2863L26.7478 19.7055H38.6557L22.1402 36.8801L39.5532 63.8H28.0942L16.0367 43.1063L8.8561 50.4754V63.8H0Z" fill="#1877F2"/>
<path d="M54.2479 41.6023L46.6185 40.2188C47.4761 37.1307 48.9522 34.8448 51.0465 33.3609C53.1408 31.8771 56.2525 31.1352 60.3813 31.1352C64.1312 31.1352 66.9236 31.5863 68.7587 32.4887C70.5937 33.371 71.8803 34.5039 72.6183 35.8875C73.3762 37.251 73.7552 39.7676 73.7552 43.4371L73.6655 53.3027C73.6655 56.11 73.7951 58.1854 74.0544 59.5289C74.3337 60.8523 74.8423 62.276 75.5803 63.8H67.2627C67.0433 63.2385 66.7741 62.4064 66.4549 61.3035C66.3153 60.8022 66.2156 60.4714 66.1557 60.3109C64.7196 61.7146 63.1837 62.7673 61.5482 63.4691C59.9126 64.171 58.1673 64.5219 56.3123 64.5219C53.0411 64.5219 50.4581 63.6296 48.5632 61.8449C46.6883 60.0603 45.7508 57.8044 45.7508 55.0773C45.7508 53.2727 46.1796 51.6685 47.0373 50.2648C47.895 48.8411 49.0918 47.7583 50.6276 47.0164C52.1834 46.2544 54.4174 45.5927 57.3295 45.0313C61.2589 44.2893 63.9816 43.5975 65.4975 42.9559V42.1137C65.4975 40.4895 65.0986 39.3365 64.3007 38.6547C63.5029 37.9529 61.997 37.602 59.7829 37.602C58.287 37.602 57.1201 37.9027 56.2824 38.5043C55.4446 39.0858 54.7665 40.1185 54.2479 41.6023ZM65.4975 48.4602C64.4204 48.8211 62.715 49.2522 60.3813 49.7535C58.0476 50.2548 56.5217 50.7461 55.8037 51.2273C54.7066 52.0094 54.1581 53.002 54.1581 54.2051C54.1581 55.3882 54.5969 56.4108 55.4746 57.273C56.3522 58.1353 57.4692 58.5664 58.8255 58.5664C60.3414 58.5664 61.7875 58.0651 63.1638 57.0625C64.1811 56.3005 64.8492 55.3681 65.1684 54.2652C65.3878 53.5434 65.4975 52.1698 65.4975 50.1445V48.4602Z" fill="#1877F2"/>
<path d="M140.95 66H94.9936C92.3818 66 89.877 64.957 88.0302 63.1004C86.1834 61.2437 85.1459 58.7256 85.1459 56.1V3.3C85.1459 2.42479 85.4917 1.58542 86.1073 0.966547C86.7229 0.347677 87.5579 0 88.4285 0H134.384C135.255 0 136.09 0.347677 136.706 0.966547C137.321 1.58542 137.667 2.42479 137.667 3.3V42.9H150.797V56.1C150.797 58.7256 149.76 61.2437 147.913 63.1004C146.066 64.957 143.561 66 140.95 66ZM137.667 49.5V56.1C137.667 56.9752 138.013 57.8146 138.628 58.4335C139.244 59.0523 140.079 59.4 140.95 59.4C141.82 59.4 142.655 59.0523 143.271 58.4335C143.886 57.8146 144.232 56.9752 144.232 56.1V49.5H137.667ZM131.102 59.4V6.6H91.711V56.1C91.711 56.9752 92.0569 57.8146 92.6725 58.4335C93.2881 59.0523 94.123 59.4 94.9936 59.4H131.102ZM98.2762 16.5H124.537V23.1H98.2762V16.5ZM98.2762 29.7H124.537V36.3H98.2762V29.7ZM98.2762 42.9H114.689V49.5H98.2762V42.9Z" fill="#1877F2"/>
<path d="M168.044 41.6023L160.414 40.2188C161.272 37.1307 162.748 34.8448 164.842 33.3609C166.937 31.8771 170.048 31.1352 174.177 31.1352C177.927 31.1352 180.719 31.5863 182.554 32.4887C184.389 33.371 185.676 34.5039 186.414 35.8875C187.172 37.251 187.551 39.7676 187.551 43.4371L187.461 53.3027C187.461 56.11 187.591 58.1854 187.85 59.5289C188.129 60.8523 188.638 62.276 189.376 63.8H181.058C180.839 63.2385 180.57 62.4064 180.251 61.3035C180.111 60.8022 180.011 60.4714 179.951 60.3109C178.515 61.7146 176.979 62.7673 175.344 63.4691C173.708 64.171 171.963 64.5219 170.108 64.5219C166.837 64.5219 164.254 63.6296 162.359 61.8449C160.484 60.0603 159.547 57.8044 159.547 55.0773C159.547 53.2727 159.975 51.6685 160.833 50.2648C161.691 48.8411 162.887 47.7583 164.423 47.0164C165.979 46.2544 168.213 45.5927 171.125 45.0313C175.055 44.2893 177.777 43.5975 179.293 42.9559V42.1137C179.293 40.4895 178.894 39.3365 178.096 38.6547C177.299 37.9529 175.793 37.602 173.579 37.602C172.083 37.602 170.916 37.9027 170.078 38.5043C169.24 39.0858 168.562 40.1185 168.044 41.6023ZM179.293 48.4602C178.216 48.8211 176.511 49.2522 174.177 49.7535C171.843 50.2548 170.317 50.7461 169.599 51.2273C168.502 52.0094 167.954 53.002 167.954 54.2051C167.954 55.3882 168.393 56.4108 169.27 57.273C170.148 58.1353 171.265 58.5664 172.621 58.5664C174.137 58.5664 175.583 58.0651 176.96 57.0625C177.977 56.3005 178.645 55.3681 178.964 54.2652C179.184 53.5434 179.293 52.1698 179.293 50.1445V48.4602Z" fill="#1877F2"/>
<path d="M204.823 63.8H196.416V31.857H204.224V36.3988C205.561 34.2533 206.758 32.8396 207.815 32.1578C208.892 31.476 210.109 31.1352 211.465 31.1352C213.38 31.1352 215.225 31.6665 217 32.7293L214.397 40.0984C212.981 39.176 211.664 38.7148 210.448 38.7148C209.271 38.7148 208.274 39.0457 207.456 39.7074C206.638 40.3491 205.99 41.5221 205.511 43.2266C205.052 44.931 204.823 48.5003 204.823 53.9344V63.8Z" fill="#1877F2"/>
</svg>
